<?xml version="1.0" encoding="UTF-8" standalone="no"?>
<!DOCTYPE svg PUBLIC "-//W3C//DTD SVG 1.1//EN"
 "http://www.w3.org/Graphics/SVG/1.1/DTD/svg11.dtd">
<!-- Generated by graphviz version 2.38.0 (20140413.2041)
 -->
<!-- Title: %3 Pages: 1 -->
<svg width="287pt" height="258pt"
 viewBox="0.00 0.00 286.60 258.00" xmlns="http://www.w3.org/2000/svg" xmlns:xlink="http://www.w3.org/1999/xlink">
<g id="graph0" class="graph" transform="scale(1 1) rotate(0) translate(4 254)">
<title>%3</title>
<polygon fill="white" stroke="none" points="-4,4 -4,-254 282.6,-254 282.6,4 -4,4"/>
<!-- ini -->
<g id="node1" class="node"><title>ini</title>
<ellipse fill="black" stroke="black" cx="1.8" cy="-151" rx="1.8" ry="1.8"/>
</g>
<!-- A -->
<g id="node2" class="node"><title>A</title>
<ellipse fill="none" stroke="black" cx="67.6" cy="-151" rx="27" ry="18"/>
<text text-anchor="middle" x="67.6" y="-147.3" font-family="Times New Roman,serif" font-size="14.00">A</text>
</g>
<!-- ini&#45;&gt;A -->
<g id="edge1" class="edge"><title>ini&#45;&gt;A</title>
<path fill="none" stroke="black" d="M3.90737,-151C7.37186,-151 18.4868,-151 30.4158,-151"/>
<polygon fill="black" stroke="black" points="30.4776,-154.5 40.4775,-151 30.4775,-147.5 30.4776,-154.5"/>
</g>
<!-- A&#45;&gt;A -->
<g id="edge5" class="edge"><title>A&#45;&gt;A</title>
<path fill="none" stroke="black" d="M59.7448,-168.41C58.2785,-178.088 60.8969,-187 67.6,-187 71.7895,-187 74.3833,-183.519 75.3816,-178.545"/>
<polygon fill="black" stroke="black" points="78.8824,-178.435 75.4552,-168.41 71.8826,-178.384 78.8824,-178.435"/>
<text text-anchor="middle" x="67.6" y="-190.8" font-family="Times New Roman,serif" font-size="14.00">1</text>
</g>
<!-- B -->
<g id="node3" class="node"><title>B</title>
<ellipse fill="none" stroke="black" cx="164.6" cy="-168" rx="27" ry="18"/>
<text text-anchor="middle" x="164.6" y="-164.3" font-family="Times New Roman,serif" font-size="14.00">B</text>
</g>
<!-- A&#45;&gt;B -->
<g id="edge2" class="edge"><title>A&#45;&gt;B</title>
<path fill="none" stroke="black" d="M82.5168,-166.137C90.4929,-173.673 101.173,-182.01 112.6,-186 120.204,-188.656 128.438,-187.51 136.027,-184.813"/>
<polygon fill="black" stroke="black" points="137.482,-187.997 145.198,-180.737 134.638,-181.601 137.482,-187.997"/>
<text text-anchor="middle" x="116.1" y="-190.8" font-family="Times New Roman,serif" font-size="14.00">1</text>
</g>
<!-- E -->
<g id="node5" class="node"><title>E</title>
<ellipse fill="none" stroke="black" cx="164.6" cy="-111" rx="27" ry="18"/>
<text text-anchor="middle" x="164.6" y="-107.3" font-family="Times New Roman,serif" font-size="14.00">E</text>
</g>
<!-- A&#45;&gt;E -->
<g id="edge3" class="edge"><title>A&#45;&gt;E</title>
<path fill="none" stroke="black" d="M91.1137,-141.521C103.3,-136.39 118.553,-129.967 131.919,-124.339"/>
<polygon fill="black" stroke="black" points="133.39,-127.518 141.248,-120.411 130.673,-121.066 133.39,-127.518"/>
<text text-anchor="middle" x="116.1" y="-135.8" font-family="Times New Roman,serif" font-size="14.00">0</text>
</g>
<!-- A&#45;&gt;E -->
<g id="edge4" class="edge"><title>A&#45;&gt;E</title>
<path fill="none" stroke="black" d="M80.5426,-135.014C88.4782,-125.792 99.7756,-115.049 112.6,-110 117.471,-108.082 122.811,-107.104 128.145,-106.732"/>
<polygon fill="black" stroke="black" points="128.286,-110.232 138.268,-106.68 128.25,-103.232 128.286,-110.232"/>
<text text-anchor="middle" x="116.1" y="-113.8" font-family="Times New Roman,serif" font-size="14.00">1</text>
</g>
<!-- D -->
<g id="node7" class="node"><title>D</title>
<ellipse fill="none" stroke="black" cx="164.6" cy="-56" rx="27" ry="18"/>
<text text-anchor="middle" x="164.6" y="-52.3" font-family="Times New Roman,serif" font-size="14.00">D</text>
</g>
<!-- A&#45;&gt;D -->
<g id="edge6" class="edge"><title>A&#45;&gt;D</title>
<path fill="none" stroke="black" d="M78.3867,-134.219C86.4922,-121.21 98.8731,-103.23 112.6,-90 119.153,-83.6839 127.021,-77.793 134.593,-72.7482"/>
<polygon fill="black" stroke="black" points="136.691,-75.5614 143.249,-67.2399 132.933,-69.6556 136.691,-75.5614"/>
<text text-anchor="middle" x="116.1" y="-93.8" font-family="Times New Roman,serif" font-size="14.00">1</text>
</g>
<!-- B&#45;&gt;A -->
<g id="edge9" class="edge"><title>B&#45;&gt;A</title>
<path fill="none" stroke="black" d="M138.401,-163.491C127.912,-161.614 115.546,-159.401 104.159,-157.363"/>
<polygon fill="black" stroke="black" points="104.518,-153.872 94.0583,-155.556 103.285,-160.763 104.518,-153.872"/>
<text text-anchor="middle" x="116.1" y="-163.8" font-family="Times New Roman,serif" font-size="14.00">0</text>
</g>
<!-- B&#45;&gt;B -->
<g id="edge13" class="edge"><title>B&#45;&gt;B</title>
<path fill="none" stroke="black" d="M156.031,-185.41C154.431,-195.088 157.288,-204 164.6,-204 169.17,-204 172,-200.519 173.089,-195.545"/>
<polygon fill="black" stroke="black" points="176.59,-195.437 173.169,-185.41 169.59,-195.382 176.59,-195.437"/>
<text text-anchor="middle" x="164.6" y="-207.8" font-family="Times New Roman,serif" font-size="14.00">1</text>
</g>
<!-- C -->
<g id="node4" class="node"><title>C</title>
<ellipse fill="none" stroke="black" cx="256.6" cy="-111" rx="18" ry="18"/>
<ellipse fill="none" stroke="black" cx="256.6" cy="-111" rx="22" ry="22"/>
<text text-anchor="middle" x="256.6" y="-107.3" font-family="Times New Roman,serif" font-size="14.00">C</text>
</g>
<!-- C&#45;&gt;A -->
<g id="edge12" class="edge"><title>C&#45;&gt;A</title>
<path fill="none" stroke="black" d="M250.901,-132.522C243.563,-160.251 226.453,-207.338 191.6,-228 170.955,-240.239 160.055,-236.473 137.6,-228 113.209,-218.796 94.2852,-195.253 82.4756,-176.602"/>
<polygon fill="black" stroke="black" points="85.4098,-174.69 77.2568,-167.924 79.4109,-178.297 85.4098,-174.69"/>
<text text-anchor="middle" x="164.6" y="-238.8" font-family="Times New Roman,serif" font-size="14.00">0</text>
</g>
<!-- E&#45;&gt;C -->
<g id="edge10" class="edge"><title>E&#45;&gt;C</title>
<path fill="none" stroke="black" d="M191.632,-111C201.833,-111 213.626,-111 224.287,-111"/>
<polygon fill="black" stroke="black" points="224.469,-114.5 234.469,-111 224.469,-107.5 224.469,-114.5"/>
<text text-anchor="middle" x="213.1" y="-114.8" font-family="Times New Roman,serif" font-size="14.00">0</text>
</g>
<!-- F -->
<g id="node6" class="node"><title>F</title>
<ellipse fill="none" stroke="black" cx="67.6" cy="-18" rx="27" ry="18"/>
<text text-anchor="middle" x="67.6" y="-14.3" font-family="Times New Roman,serif" font-size="14.00">F</text>
</g>
<!-- F&#45;&gt;F -->
<g id="edge7" class="edge"><title>F&#45;&gt;F</title>
<path fill="none" stroke="black" d="M59.7448,-35.4099C58.2785,-45.0879 60.8969,-54 67.6,-54 71.7895,-54 74.3833,-50.5187 75.3816,-45.5449"/>
<polygon fill="black" stroke="black" points="78.8824,-45.4351 75.4552,-35.4099 71.8826,-45.3842 78.8824,-45.4351"/>
<text text-anchor="middle" x="67.6" y="-57.8" font-family="Times New Roman,serif" font-size="14.00">1</text>
</g>
<!-- F&#45;&gt;D -->
<g id="edge11" class="edge"><title>F&#45;&gt;D</title>
<path fill="none" stroke="black" d="M94.398,-15.178C102.671,-15.1405 111.724,-16.041 119.6,-19 128.061,-22.1791 136.043,-27.7393 142.824,-33.5981"/>
<polygon fill="black" stroke="black" points="140.497,-36.2139 150.192,-40.4882 145.279,-31.1013 140.497,-36.2139"/>
<text text-anchor="middle" x="116.1" y="-22.8" font-family="Times New Roman,serif" font-size="14.00">0</text>
</g>
<!-- D&#45;&gt;C -->
<g id="edge8" class="edge"><title>D&#45;&gt;C</title>
<path fill="none" stroke="black" d="M185.129,-67.9342C197.851,-75.7092 214.624,-85.9594 228.615,-94.5091"/>
<polygon fill="black" stroke="black" points="226.978,-97.6108 237.336,-99.8389 230.629,-91.6378 226.978,-97.6108"/>
<text text-anchor="middle" x="213.1" y="-90.8" font-family="Times New Roman,serif" font-size="14.00">1</text>
</g>
</g>
</svg>
